#!OML:ASF E:/inclinewalkrobotboard/Project1/Captureday1/Session1/subject1.ASF
:FULLY-SPECIFIED
:DEGREES
376
root 0 0 0 10.420360988087866 24.303539051780024 -11.049599695065048
lowerback 10.562560758712513 2.828910519107103 0.9731339366547562
upperback 1.580293851294385 3.63947980719479 -1.7111349705805705
thorax -4.218937319675682 1.8788966435803953 -2.638656041232858
lowerneck -8.862231676120267 -5.051218095286259 -7.49230847603063
upperneck 2.5253360658507944 -5.859814602873344 5.416889230261814
head 3.2502621315294444 -2.751032462339781 2.686617840313458
rclavicle -1.1230667629978142E-14 6.197478814589596E-16
rhumerus 11.453328287228056 -13.863576459944403 -62.53304856501031
rradius 20.29072033248726
rwrist 55.319910712651705
rhand -8.153887386147932 21.00019520957519
rfingers 7.1250199999999335
rthumb 17.75537724623748 -8.739349702307479
lclavicle -6.955171172757143E-15 5.489781123927535E-15
lhumerus -21.032669596526546 9.45073529141741 73.41704871769109
lradius 33.886525386990144
lwrist -37.2365021975407
lhand -9.149298828479054 14.266062719662617
lfingers 7.052136593602129
lthumb 16.511552900313593 56.04327574931901
rfemur 7.328407231739284 8.773847084361785 37.0697058194045
rtibia 23.417341344051568
rfoot -22.263704603936432 -5.824553724211737
rtoes 5.136529340646039
lfemur -41.76028393553415 -2.2772517544297677 -10.183832097514399
ltibia 25.097087054110894
lfoot -10.720542706681588 9.852112206615475
ltoes 7.01295897533744
377
root 0 0 0 10.68739785728075 24.855134899459255 -11.145469214539743
lowerback 10.479356786974456 2.7930296838322337 0.9027697491328923
upperback 1.517125170402261 3.5898900824384508 -1.723445653768625
thorax -4.237048356997175 1.854615393334582 -2.608414589217051
lowerneck -8.998073550423044 -5.088981402125301 -7.563020356525498
upperneck 2.6275990104230775 -5.9013783262267445 5.454707042208438
head 3.3097933660371712 -2.7719443539480353 2.708233494182358
rclavicle -1.1350789058088664E-14 7.393181815384727E-16
rhumerus 11.871994812954206 -14.30689705889325 -62.04048796570692
rradius 20.82158597197877
rwrist 54.98333015982816
rhand -8.293959769637462 21.0711848107615
rfingers 7.125019999999935
rthumb 17.618650949729837 -8.674707856433677
lclavicle -6.113159022673442E-15 5.838077602813923E-15
lhumerus -19.14038094509754 10.40997981610909 72.09249957946193
lradius 34.9678070587029
lwrist -36.71599245782676
lhand -9.623858396845943 14.250432941746382
lfingers 7.053178004197599
lthumb 16.058735759328595 59.778019736009384
rfemur 10.792556333729774 9.0673523256886 37.15267599105624
rtibia 22.930802916610507
rfoot -22.283643038601703 -5.310503173195777
rtoes 1.8600787488344483
lfemur -39.26032207502704 -3.7757570267151657 -10.875490863114528
ltibia 17.390640868711
lfoot -10.745288636459083 11.252099600226074
ltoes 9.343518583522195
378
root 0 0 0 10.702537606691385 25.202071187047327 -11.266039558848863
lowerback 10.368704132193896 2.7728786655659587 0.805467057848201
upperback 1.453512218087612 3.558834099939703 -1.741141599084313
thorax -4.241828943277371 1.8395984056459442 -2.5686612130353006
lowerneck -9.12191491219172 -5.130706542703119 -7.624299125660383
upperneck 2.7317853279809867 -5.960396702816745 5.484351871174896
head 3.371481278126738 -2.799925674577644 2.7207460191168438
rclavicle -1.1537475195183255E-14 7.576556614323818E-16
rhumerus 11.773015683587916 -14.536295570133172 -61.93239193243908
rradius 21.105060688381975
rwrist 54.84020040349172
rhand -8.313610152092291 21.174934138706934
rfingers 7.125019999999934
rthumb 17.599025903832075 -8.572210608364333
lclavicle -5.888862381082521E-15 5.964802954410736E-15
lhumerus -17.867729654097676 10.8862559825692 71.24974139098202
lradius 35.70844705263423
lwrist -36.32781550409648
lhand -9.992708142671354 14.28409439960015
lfingers 7.05522925705201
lthumb 15.712686303740261 63.01125417407284
rfemur 13.230585824561352 9.12372637267163 37.18043034545313
rtibia 22.780128015182814
rfoot -21.241425447836534 -4.602991493830286
rtoes -0.6404591735067378
lfemur -36.91854748520827 -4.214568199072198 -11.627528622950537
ltibia 15.607195038560082
lfoot -10.458525392778968 11.240156790776659
ltoes 10.545873139253178
379
root 0 0 0 10.585356630374521 25.28191714278866 -11.36600531284948
lowerback 10.264670135050437 2.7664011311845518 0.7141793148490354
upperback 1.4025055746169772 3.5454388615770975 -1.758572182549322
thorax -4.2380966561206055 1.8331668310043647 -2.533020873114813
lowerneck -9.218697171700446 -5.16538453223183 -7.665974776244608
upperneck 2.804620262267223 -6.015414146729512 5.5094646066307345
head 3.4180905189226696 -2.8251539889705515 2.7278038464262915
rclavicle -1.1654257810218798E-14 7.388801990844911E-16
rhumerus 11.370593603350107 -14.54593670465806 -62.07496701743927
rradius 21.16434613849637
rwrist 54.831540765035854
rhand -8.263177122257929 21.250794118677536
rfingers 7.1250199999999335
rthumb 17.647754678428946 -8.494161897122783
lclavicle -5.861234242150875E-15 6.030484985160654E-15
lhumerus -17.210255929969108 10.921204490821072 70.90309123803806
lradius 36.15173007941765
lwrist -36.16342367098224
lhand -10.246139634925962 14.324911109191373
lfingers 7.056222357419817
lthumb 15.47281208685507 65.51082893520609
rfemur 14.313071269820803 8.97447210504281 37.15200823430486
rtibia 23.116226595810616
rfoot -19.602207361128997 -3.9021878294139336
rtoes -1.793176231997462
lfemur -35.18257637915159 -4.253653817779675 -12.396696919561467
ltibia 15.881521906773127
lfoot -10.101693262856596 10.727427010273795
ltoes 11.35923109935663
380
root 0 0 0 10.470658537155682 25.241151056552344 -11.426096455809967
lowerback 10.19081498056557 2.7651829054345667 0.6454787488797629
upperback 1.369001883500565 3.53980833662689 -1.7713358420468817
thorax -4.233145680267121 1.8304135641375299 -2.506150093334281
lowerneck -9.288453465869651 -5.189946868717496 -7.689486797271575
upperneck 2.8603421234143536 -6.0563649290195345 5.527597854229225
head 3.4521801354842268 -2.8435679848054676 2.7314581783858745
rclavicle -1.1700111252447211E-14 7.04269728558033E-16
rhumerus 10.816057970702097 -14.441246550364559 -62.36316344969868
rradius 21.115660620415056
rwrist 54.90195507048291
rhand -8.18531860906426 21.31256152642304
rfingers 7.125019999999932
rthumb 17.723351512520704 -8.428301637280757
lclavicle -5.93304225953783E-15 6.092689310059267E-15
lhumerus -17.004623545371867 10.64934380774329 70.92592882798816
lradius 36.41050930530177
lwrist -36.171509447077554
lhand -10.409995628966522 14.352129056878152
lfingers 7.056117569353238
lthumb 15.314935629377356 67.45392555740436
rfemur 14.594826017735627 8.74396587801094 37.0519558167772
rtibia 23.819600664786293
rfoot -17.926434869541588 -3.326154112805294
rtoes -2.0668469712448907
lfemur -33.783022269184464 -4.134008624409503 -13.23719506098829
ltibia 16.810495124199385
lfoot -9.786401011886072 9.991188626791693
ltoes 11.970001851288561
381
root 0 0 0 10.390182175065805 25.179075043612503 -11.456727734686181
lowerback 10.146266767872131 2.7655962765359603 0.5951342708602452
upperback 1.3491780231877801 3.5370144417410883 -1.7800615523071524
thorax -4.23013156630468 1.8289892373553045 -2.485974949660095
lowerneck -9.33899984378827 -5.206909227522191 -7.701927563956409
upperneck 2.9081528358955726 -6.085101190978666 5.538515483578118
head 3.478575475922933 -2.856361306384481 2.732769325400224
rclavicle -1.1689193442011952E-14 6.55748294991362E-16
rhumerus 10.213083330165105 -14.301896467470394 -62.72019194651237
rradius 21.01391003121195
rwrist 55.02324129285064
rhand -8.100926182009642 21.371123023503575
rfingers 7.12501999999993
rthumb 17.80549693469908 -8.364900740075143
lclavicle -6.035566677046392E-15 6.16165089494221E-15
lhumerus -17.1325451499042 10.209937422214725 71.19513861568134
lradius 36.56468479648485
lwrist -36.28059446984919
lhand -10.501647227203577 14.364286758989675
lfingers 7.055328852787502
lthumb 15.224104922728557 68.96815553564042
rfemur 14.3725252002288 8.477894380371227 36.878154345957185
rtibia 24.7345722848037
rfoot -16.346402995745002 -2.883661210859451
rtoes -1.8503804112634095
lfemur -32.38602918808696 -3.913173564000285 -14.26083569968746
ltibia 18.076249661338114
lfoot -9.553663671501601 9.042529265841065
ltoes 12.44070557969387
382
root 0 0 0 10.33662996437353 25.132847942018888 -11.470660332014765
lowerback 10.124283707927164 2.767091585115587 0.5541583810144544
upperback 1.338297012181226 3.5357291527005126 -1.7870275572336167
thorax -4.230145041917901 1.8282999361901078 -2.469566512921962
lowerneck -9.378551898847595 -5.219395627942648 -7.708698240042566
upperneck 2.948592956225502 -6.105934782571678 5.54346905642274
head 3.4997705077334316 -2.865593100554391 2.7323494576585134
rclavicle -1.1639277031268071E-14 5.94385568073567E-16
rhumerus 9.601369841811373 -14.162426889314444 -63.10745208639924
rradius 20.879474992689275
rwrist 55.182578932599995
rhand -8.018884711492836 21.42970575059095
rfingers 7.125019999999928
rthumb 17.885549715969844 -8.301339016424716
lclavicle -6.147928740027725E-15 6.234951593712264E-15
lhumerus -17.50116932295154 9.68741949049683 71.62267634105457
lradius 36.637543424152106
lwrist -36.44620220642801
lhand -10.541914956597052 14.369848104340086
lfingers 7.054258071315818
lthumb 15.181774718095667 70.14515906735214
rfemur 13.698062373873611 8.166685691409377 36.619060665319964
rtibia 25.828283538428934
rfoot -14.741539158781945 -2.5326446930331112
rtoes -1.2766002529208111
lfemur -30.620383572847913 -3.5675504071713737 -15.684545258313067
ltibia 19.802226936955527
lfoot -9.400696121485192 7.715852151775833
ltoes 12.825783782708346
383
root 0 0 0 10.296178898753894 25.107354871336927 -11.474196156385966
lowerback 10.119391863648008 2.7700841131367064 0.5136675355684046
upperback 1.3330394723689016 3.5357856410280903 -1.7944289218665261
thorax -4.2336351279566475 1.8282877743642254 -2.4540510410353544
lowerneck -9.41458348223337 -5.229769888229102 -7.712746261752453
upperneck 2.9826615785526815 -6.122611594064372 5.543678291005685
head 3.5179257382895996 -2.8729147799747166 2.7304104179828927
rclavicle -1.156447801539449E-14 5.197243851391583E-16
rhumerus 8.96893102611927 -14.034886703460392 -63.52154296514149
rradius 20.721095711393673
rwrist 55.37676900350361
rhand -7.94169590969951 21.49042392281476
rfingers 7.1250199999999255
rthumb 17.961130371573734 -8.235567421717512
lclavicle -6.270888852043732E-15 6.310733609816393E-15
lhumerus -18.06099564884198 9.110802006092342 72.16849020513064
lradius 36.61185641851759
lwrist -36.65002819160702
lhand -10.553108896522371 14.381086909545179
lfingers 7.053300278958141
lthumb 15.167926073613431 71.04808011653103
rfemur 12.332530739805932 7.743195859591129 36.210733100190765
rtibia 27.280243214238958
rfoot -12.781930063447291 -2.2190037037814
rtoes -0.20366613615102036
lfemur -27.953764313501967 -3.0153096434754247 -17.889700978792064
ltibia 22.3874776796652
lfoot -9.326123688413414 5.678949438311571
ltoes 13.182277902551409
